<svg xmlns="http://www.w3.org/2000/svg" viewBox="0 0 1200 800" role="img" aria-labelledby="title desc">
  <title id="title">Photo du site 02 - placeholder</title>
  <desc id="desc">Emplacement reserve pour une photo de la zone technique.</desc>
  <rect width="1200" height="800" fill="#eef4f9"/>
  <rect x="70" y="70" width="1060" height="660" rx="32" fill="#ffffff" stroke="#cfdbe7" stroke-width="4"/>
  <rect x="230" y="180" width="210" height="390" rx="18" fill="#dce9f2" stroke="#9db6c8" stroke-width="4"/>
  <rect x="495" y="180" width="210" height="390" rx="18" fill="#dce9f2" stroke="#9db6c8" stroke-width="4"/>
  <rect x="760" y="180" width="210" height="390" rx="18" fill="#dce9f2" stroke="#9db6c8" stroke-width="4"/>
  <path d="M230 620H970" stroke="#123a52" stroke-width="8" stroke-linecap="round"/>
  <path d="M310 280H360M310 340H360M310 400H360M310 460H360" stroke="#5c6d7d" stroke-width="8" stroke-linecap="round"/>
  <path d="M575 280H625M575 340H625M575 400H625M575 460H625" stroke="#5c6d7d" stroke-width="8" stroke-linecap="round"/>
  <path d="M840 280H890M840 340H890M840 400H890M840 460H890" stroke="#5c6d7d" stroke-width="8" stroke-linecap="round"/>
  <text x="120" y="130" fill="#123a52" font-size="50" font-family="Arial, Helvetica, sans-serif" font-weight="700">
    Photo du site 02
  </text>
  <text x="120" y="700" fill="#1d617f" font-size="30" font-family="Arial, Helvetica, sans-serif">
    Emplacement reserve pour une zone technique ou une baie de brassage.
  </text>
</svg>
